<svg width="30" height="30" viewBox="0 0 30 30" fill="none" xmlns="http://www.w3.org/2000/svg">
<path fill-rule="evenodd" clip-rule="evenodd" d="M17.6527 2.07313C16.4296 0.108925 13.5703 0.108924 12.3473 2.07313L11.9069 2.78032C11.2 3.91558 9.84908 4.47516 8.54648 4.17227L7.73505 3.98358C5.48132 3.45951 3.45951 5.48132 3.98358 7.73505L4.17226 8.54648C4.47516 9.84908 3.91558 11.2 2.78032 11.9069L2.07313 12.3473C0.108925 13.5703 0.108924 16.4296 2.07313 17.6527L2.78032 18.093C3.91558 18.7999 4.47516 20.1509 4.17227 21.4535L3.98358 22.2649C3.45951 24.5186 5.48132 26.5404 7.73505 26.0164L8.54648 25.8277C9.84908 25.5248 11.2 26.0844 11.9069 27.2196L12.3473 27.9268C13.5703 29.891 16.4296 29.891 17.6527 27.9268L18.093 27.2196C18.7999 26.0844 20.1509 25.5248 21.4535 25.8277L22.2649 26.0164C24.5186 26.5404 26.5404 24.5186 26.0164 22.2649L25.8277 21.4535C25.5248 20.1509 26.0844 18.7999 27.2196 18.093L27.9268 17.6527C29.891 16.4296 29.891 13.5703 27.9268 12.3473L27.2196 11.9069C26.0844 11.2 25.5248 9.84908 25.8277 8.54648L26.0164 7.73505C26.5404 5.48132 24.5186 3.45951 22.2649 3.98358L21.4535 4.17226C20.1509 4.47516 18.7999 3.91558 18.093 2.78032L17.6527 2.07313ZM21.4 12.7238C21.9207 12.2031 21.9207 11.3589 21.4 10.8382C20.8793 10.3175 20.0351 10.3175 19.5144 10.8382L13.7905 16.5623L10.8761 13.6479C10.3554 13.1272 9.5112 13.1272 8.9905 13.6479C8.4698 14.1686 8.4698 15.0129 8.9905 15.5336L12.8477 19.3907C13.3684 19.9114 14.2126 19.9114 14.7333 19.3907L21.4 12.7238Z" fill="#0085D2"/>
</svg>
