<svg width="32" height="32" viewBox="0 0 32 32" fill="none" xmlns="http://www.w3.org/2000/svg">
<path fill-rule="evenodd" clip-rule="evenodd" d="M6.6665 5.33335C6.31288 5.33335 5.97374 5.47383 5.72369 5.72388C5.47365 5.97393 5.33317 6.31307 5.33317 6.66669V25.3334C5.33317 25.687 5.47365 26.0261 5.72369 26.2762C5.97374 26.5262 6.31288 26.6667 6.6665 26.6667H11.9998C12.7362 26.6667 13.3332 27.2636 13.3332 28C13.3332 28.7364 12.7362 29.3334 11.9998 29.3334H6.6665C5.60564 29.3334 4.58822 28.9119 3.83808 28.1618C3.08793 27.4116 2.6665 26.3942 2.6665 25.3334V6.66669C2.6665 5.60582 3.08793 4.58841 3.83808 3.83826C4.58822 3.08811 5.60564 2.66669 6.6665 2.66669H11.9998C12.7362 2.66669 13.3332 3.26364 13.3332 4.00002C13.3332 4.7364 12.7362 5.33335 11.9998 5.33335H6.6665Z" fill="white"/>
<path fill-rule="evenodd" clip-rule="evenodd" d="M20.3905 8.39052C20.9112 7.86983 21.7554 7.86983 22.2761 8.39052L28.9428 15.0572C29.4635 15.5779 29.4635 16.4221 28.9428 16.9428L22.2761 23.6095C21.7554 24.1302 20.9112 24.1302 20.3905 23.6095C19.8698 23.0888 19.8698 22.2446 20.3905 21.7239L26.1144 16L20.3905 10.2761C19.8698 9.75544 19.8698 8.91122 20.3905 8.39052Z" fill="white"/>
<path fill-rule="evenodd" clip-rule="evenodd" d="M10.6665 16C10.6665 15.2636 11.2635 14.6667 11.9998 14.6667H27.9998C28.7362 14.6667 29.3332 15.2636 29.3332 16C29.3332 16.7364 28.7362 17.3334 27.9998 17.3334H11.9998C11.2635 17.3334 10.6665 16.7364 10.6665 16Z" fill="white"/>
</svg>
