<svg width="32" height="32" viewBox="0 0 32 32" fill="none" xmlns="http://www.w3.org/2000/svg">
<path d="M16.3199 30.6666H15.7332C14.6666 30.6666 13.6666 30.2533 12.9066 29.4933C12.1466 28.7333 11.7332 27.7333 11.7332 26.6666V26.4266C11.7332 26.2 11.6666 25.96 11.5599 25.76C11.4399 25.56 11.2799 25.3866 11.0666 25.2666L10.4932 24.9333C10.0932 24.7066 9.57324 24.7066 9.1599 24.9333L8.9199 25.0666C8.0399 25.5733 6.9599 25.72 5.93324 25.44C4.9199 25.16 4.02657 24.4933 3.50657 23.5733L3.1999 23.08C2.66657 22.1466 2.5199 21.08 2.7999 20.04C3.0799 19.0133 3.73324 18.1466 4.65324 17.6133L4.82657 17.5066C5.05324 17.3733 5.21324 17.2133 5.33324 17C5.45324 16.8 5.50657 16.56 5.50657 16.3333V15.64C5.50657 15.4133 5.4399 15.1866 5.33324 14.9866C5.2399 14.8 5.06657 14.6266 4.86657 14.52L4.5999 14.3466C3.73324 13.84 3.0799 12.9866 2.7999 11.9466C2.53324 10.92 2.66657 9.83998 3.1999 8.91998L3.49324 8.41331C4.01324 7.50665 4.90657 6.82665 5.9199 6.55998C6.94657 6.27998 8.02657 6.42665 8.94657 6.95998L9.10657 7.03998C9.5999 7.31998 10.0799 7.29331 10.4932 7.05331L11.0666 6.73331C11.2666 6.61331 11.4399 6.43998 11.5599 6.23998C11.6666 6.03998 11.7332 5.79998 11.7332 5.57331V5.33331C11.7332 4.26665 12.1466 3.26665 12.9066 2.50665C13.6532 1.74665 14.6666 1.33331 15.7332 1.33331H16.3199C17.3866 1.33331 18.3866 1.74665 19.1466 2.50665C19.9066 3.26665 20.3199 4.26665 20.3199 5.33331V5.57331C20.3199 5.79998 20.3866 6.03998 20.4932 6.23998C20.6132 6.43998 20.7732 6.61331 20.9866 6.71998L21.5599 7.05331C21.9599 7.27998 22.4799 7.27998 22.8932 7.05331L23.1332 6.91998C24.0132 6.41331 25.1066 6.26665 26.1332 6.54665C27.1599 6.82665 28.0266 7.47998 28.5599 8.39998L28.8532 8.90665C29.3866 9.82665 29.5332 10.9066 29.2532 11.9333C28.9732 12.96 28.3199 13.8266 27.3999 14.36L27.1999 14.4933C26.9732 14.6266 26.8132 14.7866 26.6932 14.9866C26.5732 15.1866 26.5066 15.4266 26.5199 15.6533V16.32C26.5199 16.56 26.5866 16.7866 26.6932 17C26.8132 17.2 26.9732 17.3733 27.1866 17.4933L27.3466 17.5733C28.3066 18.1333 28.9732 19 29.2532 20.0266C29.5332 21.0533 29.3866 22.1333 28.8532 23.0533L28.5732 23.56C28.0266 24.4933 27.1732 25.16 26.1332 25.4266C25.1199 25.6933 24.0132 25.5466 23.1066 25.0266L22.9466 24.9466C22.4666 24.6666 21.9866 24.6933 21.5732 24.92L20.9999 25.2533C20.7866 25.3733 20.6266 25.5466 20.5066 25.7466C20.3866 25.9466 20.3332 26.1733 20.3332 26.4133V26.6666C20.3332 27.7333 19.9199 28.7333 19.1599 29.4933C18.3866 30.2533 17.3866 30.6666 16.3199 30.6666ZM9.82657 22.0933C10.5332 22.0933 11.2132 22.28 11.8266 22.6266L12.3999 22.96C12.9999 23.3066 13.5066 23.8133 13.8532 24.4133C14.1999 25.0266 14.3866 25.7066 14.3866 26.4133V26.6666C14.3866 27.0266 14.5199 27.36 14.7732 27.6133C15.0399 27.8666 15.3732 28 15.7332 28H16.3199C16.6799 28 17.0132 27.8666 17.2666 27.6133C17.5199 27.36 17.6532 27.0266 17.6532 26.6666V26.4266C17.6532 25.7333 17.8399 25.04 18.1866 24.4266C18.5332 23.8133 19.0399 23.32 19.6532 22.96L20.2266 22.6266C21.4399 21.92 23.0132 21.92 24.2266 22.6266L24.3866 22.7066C24.7199 22.9066 25.0932 22.9466 25.4399 22.8533C25.7866 22.76 26.0666 22.5466 26.2532 22.24L26.5332 21.7333C26.7199 21.4133 26.7599 21.0533 26.6799 20.7066C26.5866 20.3733 26.3599 20.0666 26.0532 19.8933L25.8932 19.8133C25.2399 19.44 24.7332 18.9333 24.3866 18.32C24.0399 17.7066 23.8532 17.0133 23.8532 16.32V15.6533C23.8532 14.96 24.0399 14.2533 24.3866 13.6533C24.7332 13.04 25.2399 12.5333 25.8532 12.1866L26.0399 12.08C26.3599 11.8933 26.5732 11.6 26.6666 11.2666C26.7599 10.9333 26.7066 10.56 26.5332 10.2533L26.2399 9.74665C26.0666 9.43998 25.7732 9.22665 25.4266 9.13331C25.0932 9.03998 24.7199 9.09331 24.4132 9.26665L24.1732 9.39998C23.0399 10.0666 21.4266 10.08 20.2132 9.37331L19.6399 9.03998C19.0399 8.69331 18.5332 8.18665 18.1866 7.58665C17.8399 6.97331 17.6532 6.27998 17.6532 5.58665V5.33331C17.6532 4.98665 17.5066 4.63998 17.2666 4.38665C17.0132 4.14665 16.6666 3.99998 16.3199 3.99998H15.7332C15.3866 3.99998 15.0399 4.14665 14.7866 4.38665C14.5466 4.63998 14.3999 4.98665 14.3999 5.33331V5.57331C14.3999 6.27998 14.2132 6.95998 13.8666 7.57331C13.5199 8.17331 13.0132 8.67998 12.3999 9.03998L11.8266 9.35998C10.5999 10.0666 9.02657 10.0666 7.82657 9.35998L7.66657 9.27998C7.3199 9.07998 6.9599 9.03998 6.61324 9.13331C6.2799 9.21331 5.98657 9.43998 5.81324 9.74665L5.50657 10.2533C5.33324 10.56 5.29324 10.92 5.37324 11.2666C5.46657 11.6133 5.69324 11.8933 5.9999 12.0666L6.26657 12.24C6.7999 12.5466 7.30657 13.04 7.65324 13.6533C7.9999 14.2666 8.1999 14.9466 8.1999 15.64V16.3333C8.1999 17.0266 8.02657 17.72 7.66657 18.3333C7.3199 18.9466 6.81324 19.4533 6.1999 19.8L6.02657 19.9066C5.69324 20.0933 5.4799 20.3866 5.38657 20.7333C5.29324 21.08 5.34657 21.44 5.5199 21.7466L5.81324 22.2533C5.98657 22.56 6.2799 22.7866 6.62657 22.88C6.97324 22.9733 7.33324 22.92 7.6399 22.7466L7.8799 22.6133C8.42657 22.28 9.1199 22.0933 9.82657 22.0933Z" fill="white"/>
<path d="M16.0267 21.3334C13.08 21.3334 10.6934 18.9467 10.6934 16C10.6934 13.0534 13.08 10.6667 16.0267 10.6667C18.9734 10.6667 21.36 13.0534 21.36 16C21.36 18.9467 18.96 21.3334 16.0267 21.3334ZM16.0267 13.3334C14.56 13.3334 13.36 14.5334 13.36 16C13.36 17.4667 14.56 18.6667 16.0267 18.6667C17.4934 18.6667 18.6934 17.4667 18.6934 16C18.6934 14.5334 17.4934 13.3334 16.0267 13.3334Z" fill="white"/>
</svg>
